<?xml version="1.0" encoding="utf-8"?>
<!-- Generator: Adobe Illustrator 21.0.2, SVG Export Plug-In . SVG Version: 6.00 Build 0)  -->
<svg version="1.1" id="Layer_1" xmlns="http://www.w3.org/2000/svg" xmlns:xlink="http://www.w3.org/1999/xlink" x="0px" y="0px"
	 viewBox="0 0 238 238" style="enable-background:new 0 0 238 238;" xml:space="preserve">
<style type="text/css">
	.st0{fill:#EFEFEF;}
	.st1{fill:#94D500;}
	.st2{fill:#263645;}
	.st3{fill:#B4E1D8;}
	.st4{fill:#63B0BB;}
</style>
<g>
	<circle class="st0" cx="119" cy="119" r="119"/>
	<polygon class="st1" points="115.3,71.5 106.4,61.4 109.8,58.5 115.6,65.1 128.5,52.6 131.6,55.7 	"/>
	<polygon class="st2" points="63.4,49.9 58.3,44.1 60.2,42.4 63.5,46.2 71,39 72.7,40.8 	"/>
	<polygon class="st2" points="171.6,49.9 166.5,44.1 168.4,42.4 171.7,46.2 179.1,39 180.9,40.8 	"/>
	<g>
		<polygon class="st2" points="98.4,114.8 104.7,111.1 104.7,156.5 98.4,156.5 		"/>
		<polygon class="st2" points="138.4,114.8 132.1,111.1 132.1,156.5 138.4,156.5 		"/>
		<path class="st3" d="M111.6,99.1c-3.7-3.7-3.7-9.8,0-13.6c3.7-3.7,9.8-3.7,13.6,0"/>
		<path class="st2" d="M125.2,85.6c3.7,3.7,3.7,9.8,0,13.6c-3.7,3.7-9.8,3.7-13.6,0"/>
		<polygon class="st4" points="132.1,130.1 132.1,111.1 118.4,103.1 104.7,111.1 104.7,130 104.7,156.5 104.7,203.6 114.9,203.6 
			114.9,156.5 121.9,156.5 121.9,203.7 132.1,203.7 132.1,130.1 		"/>
	</g>
	<polygon class="st3" points="132.1,111.1 104.7,156.5 104.7,111.1 118.4,103.1 	"/>
	<g>
		<polygon class="st2" points="45.5,90.1 51.8,86.4 51.8,131.8 45.5,131.8 		"/>
		<polygon class="st2" points="85.5,90.1 79.2,86.4 79.2,131.8 85.5,131.8 		"/>
		<path class="st3" d="M58.7,74.4c-3.7-3.7-3.7-9.8,0-13.6c3.7-3.7,9.8-3.7,13.6,0"/>
		<path class="st2" d="M72.3,60.8c3.7,3.7,3.7,9.8,0,13.6c-3.7,3.7-9.8,3.7-13.6,0"/>
		<polygon class="st4" points="79.2,105.4 79.2,86.4 65.5,78.4 51.8,86.4 51.8,105.3 51.8,131.8 51.8,178.9 62,178.9 62,131.8 
			69,131.8 69,179 79.2,179 79.2,105.4 		"/>
	</g>
	<polygon class="st3" points="79.2,86.4 51.8,131.8 51.8,86.4 65.5,78.4 	"/>
	<g>
		<polygon class="st2" points="151.3,90.1 157.6,86.4 157.6,131.8 151.3,131.8 		"/>
		<polygon class="st2" points="191.4,90.1 185,86.4 185,131.8 191.4,131.8 		"/>
		<path class="st3" d="M164.5,74.4c-3.7-3.7-3.7-9.8,0-13.6c3.7-3.7,9.8-3.7,13.6,0"/>
		<path class="st2" d="M178.1,60.8c3.7,3.7,3.7,9.8,0,13.6c-3.7,3.7-9.8,3.7-13.6,0"/>
		<polygon class="st4" points="185,105.4 185,86.4 171.3,78.4 157.6,86.4 157.6,105.3 157.6,131.8 157.6,178.9 167.8,178.9 
			167.8,131.8 174.8,131.8 174.8,179 185,179 185,105.4 		"/>
	</g>
	<polygon class="st3" points="185,86.4 157.6,131.8 157.6,86.4 171.3,78.4 	"/>
</g>
</svg>
