<?xml version="1.0" encoding="utf-8"?>
<!-- Generator: Adobe Illustrator 21.0.2, SVG Export Plug-In . SVG Version: 6.00 Build 0)  -->
<svg version="1.1" id="Layer_1" xmlns="http://www.w3.org/2000/svg" xmlns:xlink="http://www.w3.org/1999/xlink" x="0px" y="0px"
	 viewBox="0 0 135 135" style="enable-background:new 0 0 135 135;" xml:space="preserve">
<style type="text/css">
	.st0{fill:#EFEFEF;}
	.st1{fill:#263645;}
	.st2{fill:#94D500;}
	.st3{fill:#63B0BB;}
	.st4{fill:#B4E1D8;}
</style>
<g>
	<circle class="st0" cx="67.5" cy="67.5" r="67.5"/>
	<rect x="16.9" y="96.9" class="st1" width="75.5" height="1.3"/>
	<rect x="39.1" y="83.4" class="st1" width="79" height="1.3"/>
	<rect x="37.1" y="69.9" class="st1" width="61.8" height="1.3"/>
	<polygon class="st2" points="22.6,94.8 27.5,82.6 30.2,61.2 32.3,86.8 36.3,42 39.1,42 42.4,89.6 48.8,94.8 54.9,94.8 57.7,91.1 
		62.6,94.8 	"/>
	<polygon class="st3" points="61,64.5 62.4,64.5 62.4,57.4 64.5,46 66.8,46 66.8,52.7 67.5,68.4 69.2,65.5 73.5,65.5 73.5,68.4 
		42.4,68.4 43.9,63.5 52,66.7 53.9,65.2 55.4,40.8 56.7,28.8 58.7,28.8 58.7,44.9 60.7,44.9 	"/>
	<polygon class="st3" points="80.8,68.4 92.9,68.4 92.9,49.5 90.4,49.5 90.4,59.3 87.9,59.3 	"/>
	<polygon class="st4" points="69.3,78.7 69.3,81.6 116.6,81.6 116.6,81.6 114.4,68.6 108.8,75.8 106.9,75.8 105.6,37 103.3,37 
		100.3,52.8 98.7,59.3 96,59.3 81.7,81.6 	"/>
</g>
</svg>
