<?xml version="1.0" encoding="utf-8"?>
<!-- Generator: Adobe Illustrator 21.0.2, SVG Export Plug-In . SVG Version: 6.00 Build 0)  -->
<svg version="1.1" id="Layer_1" xmlns="http://www.w3.org/2000/svg" xmlns:xlink="http://www.w3.org/1999/xlink" x="0px" y="0px"
	 viewBox="0 0 135 135" style="enable-background:new 0 0 135 135;" xml:space="preserve">
<style type="text/css">
	.st0{fill:#EFEFEF;}
	.st1{fill:#B4E1D8;}
	.st2{fill:#63B0BB;}
	.st3{fill:#94D500;}
	.st4{fill:#263645;}
</style>
<g>
	<circle class="st0" cx="67.5" cy="67.5" r="67.5"/>
	<g>
		<g>
			<polyline class="st1" points="82.6,103.9 82.6,70 61.4,57.7 40.2,70 40.2,103.9 			"/>
		</g>
		<g>
			
				<ellipse transform="matrix(0.7071 -0.7071 0.7071 0.7071 -13.0829 56.2705)" class="st2" cx="61.4" cy="43.9" rx="10.5" ry="10.5"/>
			<path class="st1" d="M53.9,51.4c-4.1-4.1-4.1-10.8,0-14.9s10.8-4.1,14.9,0"/>
		</g>
		<g>
			<g>
				<rect x="87.1" y="28.4" class="st3" width="6.3" height="19.7"/>
			</g>
			<g>
				<rect x="80.4" y="35.2" class="st3" width="19.7" height="6.3"/>
			</g>
		</g>
		<g>
			<polygon class="st2" points="40.2,70 46.9,66.1 46.9,103.9 40.2,103.9 			"/>
			<polygon class="st2" points="82.5,70 75.8,66.1 75.8,103.9 82.5,103.9 			"/>
		</g>
		<path class="st4" d="M60.2,74.4v11.5c-2,0.5-3.5,2.4-3.5,4.6c0,2.6,2.1,4.7,4.7,4.7s4.7-2.1,4.7-4.7c0-2.2-1.5-4-3.5-4.6V74.4
			c5.3-0.6,9.6-4.6,10.5-9.9l-2.3-1.3c-0.3,4.9-4.4,8.9-9.4,8.9c-5,0-9.1-3.9-9.4-8.9l-2.3,1.3C50.5,69.7,54.8,73.8,60.2,74.4z
			 M63.7,90.4c0,1.3-1,2.3-2.3,2.3s-2.3-1-2.3-2.3c0-1.3,1-2.3,2.3-2.3S63.7,89.1,63.7,90.4z"/>
	</g>
</g>
</svg>
